@startuml

package Adv
{
    package Effects
    {
        interface IEffect
        {
            +Activate(item:ItemData):void
        }
        class 各種効果
        class EffectData
        {
            -_effect:IEffect
            -_timing:EffectTiming
            +<<property>>Effect:IEffect{get only}
            +<<property>>Timing:EffectTiming{get only}
        }
        enum EffectTiming
        {
            Init,
            Trade,
            Use,
        }
    }
    class ItemData
    {
        -_isItem:bool
        -_price:int
        -_effects:List<EffectData>
        -_categories:List<CategoryData>
        -_characteristics:List<CharacteristicsData>
        +<<property>>IsItem:bool{get only}
        +<<property>>Quality:int
        +<<property>>Price:int
        +<<property>>Effects:IEnumerable<EffectData>{get only}
        +<<property>>Categories:IEnumerable<CategoryData>{get only}
        +<<private>>Characteristics:IEnumerable<CharacteristicsData>{get only}
        +Init():void
    }
    class EnemyData
    {
        -_attack:int
        -_dropTable:List<ItemData>
        +<<property>>Attack:int{get only}
        +<<property>>DropTable:IEnumerable<ItemData>{get only}
    }
    class StageData
    {
        -_floor:int
        -_spawnRate:float
        -_pickRate:float
        -_openableRate:float
        -_spawnTable:List<WeightNode<EnemyData>>
        -_itemTable:List<WeightNode<ItemData>>
        -_characteristicsTable:List<WeightNode<CharacteristicsData>>
        -_qualityRange:MinMax
        +<<property>>Floor:int{get only}
        +<<property>>SpawnRate:float{get only}
        +<<property>>PickRate:float{get only}
        +<<property>>OpenalbeRate:float{get only}
        +<<property>>SpawnTable:IEnumerable<WeightNode<EnemyData>>{get only}
        +<<property>>ItemTable:IEnumerable<WeightNode<ItemData>>{get only}
        +<<property>>CharacteristicsTable:IEnumerable<WeightNode<CharacteristicsData>>{get only}
        +<<property>>QualityRange:MinMax{get only}
    }
    class Treasure
    {
        -_hp:SliderParameter
        -_mp:SliderParameter
        -_basket:ItemCollection
        +<<property>>HP:int
        +<<property>>MP:int
        +Damage(quantity:int):void
        +<<override>>GetItem(item:ItemData):void
        +SeeBasket():void
        +SwapToContainer():void
        -Death():void
    }
    class ItemCollection
    {
        +<<property>>Contents:List<ItemData>
    }
}

package Alchemy
{
    class CategoryData
    class CharacteristicsData
    {
        -_effect:IEffect
        -_timing:EffectTiming
        +<<property>>Effect:IEnumerable<IEffect>{get only}
        +<<property>>Timing:EffectTiming{get only}
    }
    class RecipeData
    {
        -_recipe:Synthesizer<MaterialAndQuantity, ItemData>
        +<<property>>NeedMaterials:List<MaterialAndQuantity>
        +<<property>>Product:ItemData
    }
    class MaterialAndQuantity
    {
        -_material:AlchemyMaterial
        -_quantity:int
        +<<property>>Material:AlchemyMaterial
        +<<property>>Quantity:int
    }
    class Jar
    {
        -productImage:Image
        -_recipe:RecipeData
        +SetCanAlchemy(canAlchemy:bool):void
        +SetRecipe(recipe:RecipeData):void
        +Alchemy(materials:IEnumerable<ItemData>):ItemData
    }
    class Alchemist
    {
        -_materials:Transform
        -_jar:Jar
        -_selectRecipeData:RecipeData
        -_materialNodes:List<MaterialNode>
        -_canAlchemy:bool
        +Alchemy():void
    }
    class CharacteristicsTree
    {
        -_nodes:List<Synthesizer<CharacteristicsData,CharacteristicsData>>
        +<<property>>Nodes:IEnumerable<Synthesizer<CharacteristicsData,CharacteristicsData>>
    }
    abstract AlchemyMaterial
}

package SaveSystem
{
    interface ISavable<T>
    {
        +Serialize():string
        +Deserialize(data:string):T
    }
    class SaveData
    {
        -_container:ItemCollection
        +ContainerData:string
    }
    class SaveLoadManager
    {
        -_data:SaveData
        -_filePath:string
        +Save():void
        +Load():void
    }
}

package Sweeper
{
    package TileContents
    {
        interface ITileContents
        {
            +<<property>>Image:Sprite
            +Open():void
        }
        class None
        {
            +None()
        }
        class Enemy
        {
            -_enemyData:EnemyData
            +Enemy()
            +Enemy(data:EnemyData)
        }
        class Stair
        {
            +Stair()
        }
        class Pick
        {
            -datas:List<ItemData>
            -OpenProcess():IEnumerator
            +Pick()
            +Pick(datas:List<ItemData>)
        }
        class Exit
        {
            +Exit()
        }
    }
    class Tile
    {
        -_aroundTiles:List<Tile>
        -_contentsMap::Dictionary<Type,int>
        +<<property>>Contents:ITileContents
        +<<property>>ContentsMap:IDictionary<Type,int>{ get only }
        +<<property>>AroundTiles:IEnumerable<TIle>{ get only }
        +<<property>>Pos:Vector2
        +AddAroundTile(tile:Tile)
        +CountUpAround(target:ITileContents):void
        +Open():void
    }
    class TileView
    {
        -_tileImage:Image
        -_hints:Transform
        -_contents:GameObject
        -_bad:GameObject
        -_animator:Animator
        +Open():void
        +ShowHints(contentsMap:IDictionary<Type,int>):void
        +ShowContens(contents:ITileContents):void
        +ChangeBad():void
    }
    class TileController
    {
        -_tile:Tile
        -_tileView:TileView
        +<<property>>Openable:bool
        +OnLongPressed():void
    }
    class TileFactory
    class Stage
    {
        -_gridLayoutGroup:GridlayoutGroup
        -viewSize:int
        -_stageData:StageData
        -_info
        +<<property>>Map:GameObject[][]{ private set }
        +<<property>>Width:int{ private set }
        +<<property>>Height:int{ private set }
        +<<property>>NowFloor:int{ private set }
        -Reset(width:int,height:int):void
        -Clear():void
        +Create(width:int, height:int, stageOption:StageOption):void
        +SetContents(contents:ITileContents, index:int):void
        +Next():void
    }
    class StageOption
    {
        +Enemy:int
        +Storage:int
        +Stair:int
        +Openable:int
        +SpawnTable:List<EnemyData>
        +ItemTable:List<ItemData>
    }
}

package Tutorial
{
    class 各種チュートリアル
    class TutorialManager
    {
        -_title:TextMeshProUGUI
        -_detail:TextMeshProUGUI
        -_currentTask:ITask
        -_curosr:int
    }
    class TutorialOrder
    {
        +TutorialTask:TutorialTask
    }
    class TutorialTask
    {
        -_tasks:List<ITask>
        +Tasks:IEnumerable<ITask>
    }
}

package UI
{
    package Counters
    {
        class ContentsCounter
        {
            -_image:Sprite
            -_value:TextMeshProUGUI
            +<<property>>Value:int
            +Init(image:Sprite,value:int,operand:bool,color:Color)
        }
        class ContentsCounterFactory
    }
    package Popups
    {
        class Dialog
        {
            -_body:TextMeshProUGUI
            -_onAgree:GameObject
            -_onDisAgree:GameObject
            +Show(type:DialogType,text:string,onAgree:Action,onDisAgree:Action)
        }
        enum DialogType
        {
            AgreeOnly,
            Switch,
        }
        class DialogFactory
    }
    package Sliders
    {
        class CycleSlider
        {
            -_range:MinMax
            -_value:TextMeshProUGUI
            -_back:Image
            -_fill:Image
            -_colors:Color[]
            -_scale:float
            +<<property>>Value:int

        }
        class SliderParameter
        {
            -_options:SliderParameterOptions
            -_text:TextMeshProUGUI
            -_value:TextMeshProUGUI
            -_slider:Slider
            +<<property>>Name:string{get only}
            +<<property>>Min:float{get only}
            +<<property>>Max:float{get only}
            +<<property>>Value:float
            +Init(name:string,min:float,max:float):void
            +SetName(name:string):void
            +Range(min:float,max:float):void
        }
        enum SliderParameterOptions
        {
            ValueNone,
            ValueOnly,
            ValueAndMax,
        }
    }
    package Viewers
    {
        class CharacteristicsNode
        {
            -_image:Image
            -_name:TextMeshProUGUI
            -_info:TextMeshProUGUI
            -_data:BaseData
            +Init(data:BaseData):void
        }
        class CharacteristicsNodeFactory
        class CharacteristicsViewer
        class ItemInfoViewer
        {
            -_itemName:TextMeshProUGUI
            -_itemImage:Image
            -_itemQuality:SliderParameter
            -_effectIcons:Transform
            -_characteristicIcons:Transform
            -ShowIcons(datas:IEnumeralbe<BaseData>,parent:Transform):void
        }
        class ItemNode
        {
            -_image:Image
            -_text:TextMeshProUGUI
            -_item:ItemData
            -_holding:int
            +<<property>>Item:ItemData{get only}
            +<<property>>Holding:int
            +Init(item:ItemData):void
            +OnLongPressed():void
        }
        class ItemNodeFactroy
        class ItemViewer
        {
            -_collectons:ItemCollection
            -ContainsOrder(orderList:List<string>,item:ItemData):bool
            -CreateItemNode(item:ItemData):void
        }
        abstract Viewer<T>
        {
            -_contents:Transform
            #ContentsReset():void
            +Show():void
        }
        class EffectIconFactory
        class EffectIcon
        {
            -_icon:Image
            -_lv:GameObject
            -_text:TextMeshProUGUI
            +Init(data:BaseData):void
        }
        class ContentsIconsViewer
        {
            -_template:Image
            -_parent:Transform
            +SetContentsIcons(contents:IEnumerable<BaseData>):void
        }
        class LoadStageViewer
        {
            -_stageName:TextMeshProUGUI
            -_spawnEnemys:ContentsIconsViewer
            -_pickItems:ContentsIconsViewer
        }
    }
    package Selectors
    {
        abstract Selector<T>
        {
            #_completBtn:Button
            #_closeBtn:Button
            #OnSelectComplet():void
            #OnClose():void
        }
        class ItemSelector
        class CharacteristicsSelector

    }
    package Orders
    {
        class CharacteristicsViewerOrder
        {
            +Contents:List<string>
        }
        class SelectorOrder
        {
            +Selectable:MinMax
            +Results:List<string>
        }
        class ItemInfoViewerOrder
        {
            +Data:ItemData
        }
        class ItemViewerOrder
        {
            +WhiteList:List<string>
            +BlackList:List<string>
            +ItemOnly:bool
        }
        class LoadStageOrder
        {
            +Data:StageData
            +SetData(node:StageNode):void
        }
        class LoadRecipeOrder
        {
            +Data:RecipeData
            +SetData(nod:RecipeNode):void
        }
    }
    class StageInfo
    {
        -_contents:Transform
        -_floor:TextMeshProUGUI
        -_timer:ContentsCounter
        +SetTimer(timeLimit:int):void
        +SetFloor(floorInfo:string)
        +ShowContents(option:StageOption)
        -CountContents<T>(list:IEnumerable<T>)
    }

    class StageNode
    {
        -_text:TextMeshProUGUI
        -_data:StageData
        +<<property>>Data:StageData{get only}
    }

    class PickItemFactory
    class PickItem
    {
        -_image:Image
        -_rectTransform:RectTransform
        +Init(sprite:Sprite):void
        +Move(tf:Transform):void
    }
    class RecipeNode
    {
        -_image:Image
        -_name:TextMeshProUGUI
        -_data:RecipeData
        +<<property>>Data:RecipeData{get only}
    }
    class MaterialNodeFactory
    class MaterialNode
    {
        -_image:Image
        -_requiredAndSelectedNum:TextMeshProUGUI
        -_materialAndQuantity:MaterialAndQuantity
        -_selectedMaterials:List<ItemData>
        +<<property>>NeedQuantity:int{get only}
        +<<property>>SelectedMaterials:IEnumerable<ItemData>{get only}
        +Init(materialAndQuantity:MaterialAndQuantity):void
        +SelectClear():void
    }
    class BringItemNode
    {
        -_image:Image
        -_nonItem:Sprite
        -_item:ItemData
    }
}

class LongPressTrigger
{
    -_pressed:bool
    -_pressedTime:float
    -_disposable:IDisposable
    +Duration:float
    +OnLongPressDown:UnityEvent
    +OnLongPressUp:UnityEvent
}
abstract BaseData
{
    -_id:string
    -_name:string
    -_info:string
    -_image:Sprite
    +<<property>>ID:string{get only}
    +<<property>>Name:string{get only}
    +<<property>>Info:string{get only}
    +<<property>>Image:Sprite{get only}
    +Copy(data:BaseData):void
}
class ObjectCompare<T>
class Player
{
    -_container:ItemCollection
    +<<virtual>>GetItem(item:ItemData):void
    +GetItmes(items:IEnumerable<ItemData>):void
    +<<virtual>>RemoveItem(item:ItemData):void
    +RemoveItems(items:IEnumerable<ItemData>):void
}
class GameManager
class Synthesizer<TMaterial, TProduct>
{
    -_materials:List<TMaterial>
    -_product:TProduct
    +<<property>>Materials:IEnumerable<TMaterial>
    +<<property>>Product:TProduct
}
abstract OrderReceiveMonoBehaviour<T>
{
    #_order:T
}
abstract Order
{
    +<<property>>OnOrderComplete{get only}
    +<<property>>OnOrderUnComplete{ get only }
    +Reset():void
}
interface ITask
{
    +<<property>>Title:string{get only}
    +<<property>>Detail:string{get only}
    +CheckTaskComplete():bool
    +OnTaskStart():void
    +OnTaskComplete():void
}
abstract Factory<T>
{
    #_original:T
    +Create():T
}


Enemy ..|> ITileContents
None ..|> ITileContents
Stair ..|> ITileContents
Pick ..|> ITileContents
Exit ..|> ITileContents

TileController ..|> IPointerClickHandler
ItemNode ..|> IPointerClickHandler
RecipeNode ..|> IPointerClickHandler
MaterialNode ..|> IPointerClickHandler
CharacteristicsNode ..|> IPointerClickHandler
BringItemNode ..|> IPointerClickHandler
LongPressTrigger ..|> IPointerDownHandler
LongPressTrigger ..|> IPointerUpHandler

各種効果 ..|> IEffect

各種チュートリアル ..|> ITask

ObjectCompare ..|> IEqualityComparer

SaveData ..|> ISerializationCallbackReceiver

ItemData ..|> ISavable
ItemCollection ..|> ISavable

ViewerOrder --|> Order
SelectorOrder --|> Order
ItemInfoViewerOrder --|> Order
LoadStageOrder --|> Order
TutorialOrder --|> Order

TileFactory --|> Factory
DialogFactory --|> Factory
ContentsCounterFactory --|> Factory
ItemNodeFactroy --|> Factory
PickItemFactory --|> Factory
MaterialNodeFactory --|> Factory
EffectIconFactory --|> Factory
CharacteristicsNodeFactory --|> Factory

RecipeData --|> BaseData
AlchemyMaterial --|> BaseData
CharacteristicsData --|> BaseData
EnemyData --|> BaseData
StageData --|> BaseData
BaseData --|> ScriptableObject
ItemCollection --|> ScriptableObject
Order --|> ScriptableObject

ItemData --|> AlchemyMaterial
CategoryData --|> AlchemyMaterial

Treasure --|> Player
Alchemist --|> Player

Selector --|> OrderReceiveMonoBehaviour
Viewer --|> OrderReceiveMonoBehaviour
Stage --|> OrderReceiveMonoBehaviour
TutorialManager --|> OrderReceiveMonoBehaviour
ItemSelector --|> Selector
ItemViewer --|> Viewer
CharacteristicsViewer --|> Viewer
CharacteristicsSelector --|> Selector
ItemInfoViewer --|> Viewer
LoadStageViewer --|> Viewer

Stage -- StageInfo
Dialog -- DialogType

TileController *--> Tile
TileController *--> TileView
Tile *--> ITileContents
Stage *--> StageOption

CategoryData --o ItemData
CharacteristicsData --o ItemData
ItemNode --o ItemViewer
CharacteristicsNode --o CharacteristicsViewer

Synthesizer --* RecipeData
SaveData --* SaveLoadManager
Order --* OrderReceiveMonoBehaviour
TutorialTask --* TutorialManager
ITask --* TutorialTask

TileFactory ..> Tile : Create
DialogFactory ..> Dialog : Create
ContentsCounterFactory ..> ContentsCounter : Create
ItemNodeFactroy ..> ItemNode : Create
PickItemFactory ..> PickItem : Create
MaterialNodeFactory ..> MaterialNode : Create
EffectIconFactory ..> EffectIcon : Create
CharacteristicsNodeFactory ..> CharacteristicsNode : Create

@enduml